<?xml version="1.0" standalone="no"?><!DOCTYPE svg PUBLIC "-//W3C//DTD SVG 1.1//EN"
        "http://www.w3.org/Graphics/SVG/1.1/DTD/svg11.dtd">
<svg t="1777517712170" class="icon" viewBox="0 0 1024 1024" version="1.1" xmlns="http://www.w3.org/2000/svg" p-id="9468"
     width="1.2em" height="1.2em">
    <path  d="M661.653927 850.681606l-598.429465 0L63.224462 166.398798l598.429465 0L661.653927 850.681606zM605.57777 794.633079 605.57777 222.461651 119.313921 222.461651l0 572.172451L605.57777 794.634102"
           fill="currentColor" p-id="9469"></path>
    <path d="M240.774227 366.237195c-15.442714 0-28.009937-12.568247-28.009937-28.051893 0-15.456017 12.567223-28.024264 28.009937-28.024264l252.366751 0c15.496949 0 28.052916 12.568247 28.052916 28.024264 0 15.483646-12.555967 28.051893-28.052916 28.051893L240.774227 366.237195"
          fill="currentColor" p-id="9470"></path>
    <path d="M240.774227 528.002462c-15.442714 0-28.009937-12.56927-28.009937-28.052916 0-15.497972 12.567223-28.05087 28.009937-28.05087l252.366751 0c15.496949 0 28.052916 12.552897 28.052916 28.05087 0 15.482623-12.555967 28.052916-28.052916 28.052916L240.774227 528.002462"
          fill="currentColor" p-id="9471"></path>
    <path d="M240.774227 689.73703c-15.442714 0-28.009937-12.539594-28.009937-28.010961 0-15.495926 12.567223-28.063149 28.009937-28.063149l252.366751 0c15.496949 0 28.052916 12.567223 28.052916 28.063149 0 15.471366-12.555967 28.010961-28.052916 28.010961L240.774227 689.73703"
          fill="currentColor" p-id="9472"></path>
    <path d="M848.279395 867.327728 717.454814 705.59009l0-539.231201 242.974847 0 0 539.231201L848.279395 867.327728zM844.829829 773.906012l59.499116-85.865623L904.328945 222.461651 773.504364 222.461651l0 463.249693L844.829829 773.906012"
          fill="currentColor" p-id="9473"></path>
    <path d="M754.831073 348.274078 754.831073 292.171316 923.055448 292.171316 923.055448 348.274078 754.831073 348.274078Z"
          fill="currentColor" p-id="9474"></path>
</svg>